<svg width="60" height="104" viewBox="0 0 60 104" fill="none" xmlns="http://www.w3.org/2000/svg"><path d="M4 67V7L55.1 32.5C58.8 34.3 58.8 39.6 55.1 41.4L4 67Z" fill="#FF6D60"/><path d="M4 102C2.9 102 2 101.1 2 100V4C2 2.9 2.9 2 4 2C5.1 2 6 2.9 6 4V100C6 101.1 5.1 102 4 102Z" fill="#FF6D60"/><path d="M4.00001 103.2C1.90001 103.2 0.200012 101.5 0.200012 99.4V3.99999C0.200012 2.19999 1.70001 0.799988 3.40001 0.799988H4.40001C6.20001 0.799988 7.60001 2.29999 7.60001 3.99999V99.5C7.80001 101.6 6.10001 103.2 4.00001 103.2ZM3.50001 3.19999C3.10001 3.19999 2.70001 3.49999 2.70001 3.99999V99.5C2.70001 100.2 3.30001 100.7 3.90001 100.7C4.50001 100.7 5.10001 100.1 5.10001 99.5V3.99999C5.10001 3.59999 4.80001 3.19999 4.30001 3.19999H3.50001Z" fill="#FF6D60"/></svg>